<svg height="469pt" viewBox="-42 0 469 469.34352" width="469pt" xmlns="http://www.w3.org/2000/svg">
  <circle cx="145pt" cy="175pt" r="100pt" fill="#f2e1ca" />
  <path
    d="m243.949219 182.890625c-37.457031-37.457031-91.003907-44.636719-119.601563-16.042969-28.59375 28.597656-21.414062 82.144532 16.042969 119.601563 37.460937 37.460937 91.007813 44.640625 119.605469 16.046875 28.59375-28.597656 21.414062-82.144532-16.046875-119.605469zm0 0"
    fill="#953c1c" />
  <path
    d="m245.503906 298.671875c-17.664062-.019531-31.980468-14.335937-32-32-.007812-5.886719-4.777344-10.660156-10.664062-10.667969-17.667969-.019531-31.980469-14.332031-32-32-.007813-5.886718-4.78125-10.65625-10.667969-10.664062-17.664063-.019532-31.980469-14.335938-32-32 0-5.890625 4.777344-10.667969 10.667969-10.667969s10.664062 4.777344 10.664062 10.667969c.007813 5.886718 4.78125 10.65625 10.667969 10.664062 17.664063.019532 31.980469 14.335938 32 32 .007813 5.890625 4.777344 10.660156 10.667969 10.667969 17.664062.019531 31.980468 14.335937 32 32 .007812 5.886719 4.777344 10.660156 10.664062 10.667969 5.894532-.007813 10.679688 4.769531 10.679688 10.664062 0 5.894532-4.785156 10.671875-10.679688 10.667969zm0 0"
    fill="#3e190c" />
</svg>
