
<svg xmlns="http://www.w3.org/2000/svg" xmlns:xlink="http://www.w3.org/1999/xlink" version="1.1" id="Layer_1" x="0px" y="0px" viewBox="0 0 512 512" style="enable-background:new 0 0 512 512;" xml:space="preserve" width="512" height="512">
<g id="XMLID_857_">
	<path id="XMLID_860_" style="fill:#00DF97;" d="M425.369,176.869c0,81.941-129.971,244.733-162.203,283.845   c-3.715,4.508-10.618,4.508-14.333,0C216.602,421.602,86.631,258.81,86.631,176.869C86.631,83.329,162.46,7.5,256,7.5   S425.369,83.329,425.369,176.869z"/>
	<path id="XMLID_1420_" style="fill:#00B579;" d="M256,279.067c-62.186,0-112.778-50.592-112.778-112.778S193.814,53.511,256,53.511   s112.778,50.592,112.778,112.778S318.186,279.067,256,279.067z"/>
	<circle id="XMLID_1419_" style="fill:#DAD0CD;" cx="256" cy="166.289" r="100.778"/>
	<path id="XMLID_1418_" style="fill:#F1EDED;" d="M256,255.067c-48.953,0-88.778-39.826-88.778-88.778   c0-48.952,39.826-88.778,88.778-88.778s88.778,39.826,88.778,88.778C344.778,215.242,304.953,255.067,256,255.067z"/>

		<ellipse id="XMLID_1417_" transform="matrix(-0.7071 -0.7071 0.7071 -0.7071 318.0304 468.284)" style="fill:#BE7560;" cx="256" cy="168.276" rx="33.978" ry="47.011"/>
	<g id="XMLID_861_">
		<path id="XMLID_865_" d="M364.278,166.289c0-59.705-48.573-108.278-108.278-108.278c-21.28,0-41.885,6.178-59.586,17.865    c-3.457,2.282-4.409,6.935-2.126,10.391c2.282,3.458,6.934,4.408,10.391,2.126C219.92,78.33,237.667,73.011,256,73.011    c51.434,0,93.278,41.845,93.278,93.278S307.434,259.567,256,259.567c-19.005,0-37.293-5.684-52.886-16.438    c-3.41-2.354-8.081-1.495-10.432,1.916c-2.352,3.41-1.494,8.08,1.917,10.432c18.108,12.489,39.341,19.09,61.402,19.09    C315.705,274.567,364.278,225.994,364.278,166.289z"/>
		<path id="XMLID_866_" d="M179.896,99.805c-3.311-2.488-8.013-1.822-10.501,1.49c-14.178,18.864-21.672,41.339-21.672,64.994    c0,22.866,7.048,44.733,20.382,63.236c1.466,2.034,3.761,3.116,6.091,3.116c1.519,0,3.052-0.46,4.378-1.416    c3.36-2.421,4.122-7.109,1.7-10.469c-11.482-15.934-17.551-34.768-17.551-54.467c0-20.378,6.454-39.737,18.664-55.982    C183.874,106.996,183.207,102.294,179.896,99.805z"/>
		<path id="XMLID_867_" d="M250.675,216.175c12.361-1.989,24.668-8.584,34.654-18.57s16.581-22.293,18.57-34.655    c2.133-13.257-1.189-25.055-9.354-33.22c-8.166-8.166-19.964-11.489-33.22-9.354c-12.361,1.989-24.669,8.584-34.654,18.57    c-9.986,9.986-16.581,22.293-18.57,34.654c-2.133,13.257,1.189,25.055,9.354,33.22c6.551,6.551,15.439,9.985,25.545,9.985    C245.49,216.806,248.054,216.597,250.675,216.175z M274.723,186.999c-7.773,7.772-17.16,12.875-26.431,14.367    c-5.132,0.827-9.814,0.454-13.747-1.029l53.5-53.5C292.199,158.007,287.131,174.59,274.723,186.999z M237.277,149.553    c9.548-9.548,21.571-14.754,31.695-14.754c3.033,0,5.892,0.474,8.467,1.432l-53.484,53.484    C219.801,178.544,224.869,161.961,237.277,149.553z"/>
		<path id="XMLID_871_" d="M246.375,340.097c-4.142,0-7.5,3.358-7.5,7.5s3.358,7.5,7.5,7.5h19.251c4.142,0,7.5-3.358,7.5-7.5    s-3.358-7.5-7.5-7.5H246.375z"/>
		<path id="XMLID_872_" d="M298.232,320.257c0-4.142-3.358-7.5-7.5-7.5h-69.464c-4.142,0-7.5,3.358-7.5,7.5s3.358,7.5,7.5,7.5    h69.464C294.874,327.757,298.232,324.399,298.232,320.257z"/>
	</g>
</g>
</svg>
